<svg xmlns="http://www.w3.org/2000/svg" viewBox="0 0 32 32" fill="none">
  <rect width="32" height="32" rx="6" fill="#FAF9F7"/>
  <path d="M10 8a3 3 0 1 0 0 6 3 3 0 0 0 0-6zm0 4.5a1.5 1.5 0 1 1 0-3 1.5 1.5 0 0 1 0 3z" fill="#8b5cf6"/>
  <path d="M10 18a3 3 0 1 0 0 6 3 3 0 0 0 0-6zm0 4.5a1.5 1.5 0 1 1 0-3 1.5 1.5 0 0 1 0 3z" fill="#8b5cf6"/>
  <path d="M12.5 12L22 16l-9.5 4" stroke="#8b5cf6" stroke-width="2" stroke-linecap="round" stroke-linejoin="round"/>
  <path d="M12.5 20L22 16" stroke="#8b5cf6" stroke-width="2" stroke-linecap="round" stroke-linejoin="round"/>
</svg>
